<?xml version="1.0" encoding="UTF-8" standalone="no"?>
<svg
   xmlns:dc="http://purl.org/dc/elements/1.1/"
   xmlns:cc="http://creativecommons.org/ns#"
   xmlns:rdf="http://www.w3.org/1999/02/22-rdf-syntax-ns#"
   xmlns:svg="http://www.w3.org/2000/svg"
   xmlns="http://www.w3.org/2000/svg"
   xmlns:sodipodi="http://sodipodi.sourceforge.net/DTD/sodipodi-0.dtd"
   xmlns:inkscape="http://www.inkscape.org/namespaces/inkscape"
   style="fill: currentColor;"
   viewBox="0 0 512 512"
   version="1.1"
   id="svg30"
   sodipodi:docname="neighbourhood.svg"
   inkscape:version="1.0.2 (e86c870879, 2021-01-15, custom)">
  <metadata
     id="metadata36">
    <rdf:RDF>
      <cc:Work
         rdf:about="">
        <dc:format>image/svg+xml</dc:format>
        <dc:type
           rdf:resource="http://purl.org/dc/dcmitype/StillImage" />
      </cc:Work>
    </rdf:RDF>
  </metadata>
  <defs
     id="defs34" />
  <sodipodi:namedview
     pagecolor="#ffffff"
     bordercolor="#666666"
     borderopacity="1"
     objecttolerance="10"
     gridtolerance="10"
     guidetolerance="10"
     inkscape:pageopacity="0"
     inkscape:pageshadow="2"
     inkscape:window-width="1920"
     inkscape:window-height="1031"
     id="namedview32"
     showgrid="false"
     inkscape:zoom="0.70710678"
     inkscape:cx="363.57638"
     inkscape:cy="140.62643"
     inkscape:window-x="0"
     inkscape:window-y="26"
     inkscape:window-maximized="1"
     inkscape:current-layer="svg30" />
  <g
     id="g28">
    <g
       id="g14">
      <g
         id="g4">
        <path
           d="m256 150.5c-41.353 0-75-33.647-75-75s33.647-75 75-75 75 33.647 75 75-33.647 75-75 75z"
           id="path2" />
      </g>
      <g
         id="g8">
        <path
           d="m10.026 429c-20.669-35.815-8.35-81.768 27.466-102.451 36.551-21.085 82.083-7.806 102.451 27.451 20.722 35.87 8.44 81.717-27.451 102.451-35.96 20.737-81.757 8.396-102.466-27.451z"
           id="path6" />
      </g>
      <g
         id="g12">
        <path
           d="m399.508 456.451c-35.867-20.721-48.185-66.561-27.451-102.451 20.367-35.256 65.898-48.537 102.451-27.451 35.815 20.684 48.135 66.636 27.466 102.451-20.683 35.802-66.455 48.218-102.466 27.451z"
           id="path10" />
      </g>
    </g>
    <g
       id="g18">
      <path
         d="m61.293 275.587-29.941-1.641c3.896-70.957 41.807-136.641 101.396-175.723l16.465 25.078c-51.665 33.883-84.522 90.821-87.92 152.286z"
         id="path16" />
    </g>
    <g
       id="g22">
      <path
         d="m450.707 275.587c-3.398-61.465-36.255-118.403-87.92-152.285l16.465-25.078c59.59 39.082 97.5 104.766 101.396 175.723z"
         id="path20" />
    </g>
    <g
       id="g26">
      <path
         d="m256 511.5c-35.684 0-69.8-8.115-101.426-24.097l13.535-26.777c54.785 27.715 120.996 27.715 175.781 0l13.535 26.777c-31.625 15.982-65.741 24.097-101.425 24.097z"
         id="path24" />
    </g>
  </g>
</svg>
