<svg id="Layer_1" height="512" viewBox="0 0 512 512" width="512" xmlns="http://www.w3.org/2000/svg" data-name="Layer 1"><path d="m469.021 179.944a31.865 31.865 0 0 0 -8.792 1.239l-142.542-123.773a37.455 37.455 0 0 0 -73.545-7.41h-132.578a41.913 41.913 0 1 0 -54.174 61.312l-26.381 304.893a39.275 39.275 0 1 0 55.714 48.87l217.349-56.109a47.189 47.189 0 0 0 80.228-48.535l87.313-116.642a31.975 31.975 0 0 0 -2.588-63.845zm-152.568-110.362 133.983 116.342a32.009 32.009 0 0 0 -13 21.009l-109.607.218a29.123 29.123 0 0 0 -24.05-23.685l-8.84-89.22a37.628 37.628 0 0 0 21.514-24.664zm-73.603-9.582a37.389 37.389 0 0 0 42.3 36.9l8.593 86.729a28.914 28.914 0 0 0 -11.743 5.14l-164.772-127.992c-.092-.259-.181-.52-.277-.777zm-123.278 15.261 155.483 120.775a29.02 29.02 0 0 0 -3.957 23.469l-87.616 19.849a27.564 27.564 0 0 0 -33.157-12.815l-51.206-115.912a41.943 41.943 0 0 0 20.453-35.366zm-69.286 335.869a39.226 39.226 0 0 0 -8.889 1.027l25.694-296.957a41.977 41.977 0 0 0 22.9-.5l51.595 116.792a27.553 27.553 0 0 0 .91 43l-77.475 139.516a39.076 39.076 0 0 0 -14.735-2.878zm243.845-31.065a46.919 46.919 0 0 0 4.443 19.968l-209.174 54.023c.111-1.2.175-2.412.175-3.64a39.252 39.252 0 0 0 -15.837-31.5l77.657-139.849a27.521 27.521 0 0 0 26.661-6.216l126.854 77.214a47.013 47.013 0 0 0 -10.779 30zm18.182-37.2-128.255-78.065a27.418 27.418 0 0 0 2.842-12.17 27.754 27.754 0 0 0 -.26-3.737l88.96-19.848a28.95 28.95 0 0 0 28.933 11.674l31.843 92.381a46.981 46.981 0 0 0 -24.063 9.765zm66.4 8.344a47.236 47.236 0 0 0 -31.541-18.009l-33.272-95.987a29.124 29.124 0 0 0 13.926-20.061l109.607-.219a32.068 32.068 0 0 0 22.57 25.667z"/><path d="m80.919 190.226a4.991 4.991 0 0 0 -5.368 4.6l-.5 6.544a5 5 0 0 0 4.6 5.368c.131.01.26.015.389.015a5 5 0 0 0 4.98-4.617l.5-6.544a5 5 0 0 0 -4.601-5.366z"/><path d="m78.705 220.689a5 5 0 0 0 -5.482 4.467l-8.113 79.574a5 5 0 0 0 4.467 5.482c.173.017.344.026.513.026a5 5 0 0 0 4.969-4.493l8.112-79.575a5 5 0 0 0 -4.466-5.481z"/></svg>