<svg id="Capa_1" enable-background="new 0 0 512 512" height="512" viewBox="0 0 512 512" width="512" xmlns="http://www.w3.org/2000/svg"><g><path d="m467 332c-15.638 0-29.433 8.022-37.5 20.163l-37.707-9.427c-2.156-22.82-21.418-40.736-44.793-40.736-6.939 0-13.514 1.581-19.389 4.398l-23.604-23.604c4.324-7.716 6.838-16.572 6.973-25.997l110.789-29.686c8.122 11.789 21.708 19.537 37.076 19.537 24.813 0 45-20.187 45-45s-20.187-45-45-45c-23.631 0-43.051 18.312-44.85 41.489l-107.805 28.886 107.197-107.197c5.875 2.817 12.45 4.398 19.389 4.398 24.813 0 45-20.187 45-45s-20.187-45-45-45-45 20.187-45 45c0 6.939 1.581 13.515 4.398 19.39l-107.196 107.195 28.886-107.804c23.176-1.8 41.487-21.22 41.487-44.85 0-24.813-20.187-45-45-45s-45 20.187-45 45c0 15.367 7.747 28.954 19.537 37.076l-29.685 110.789c-9.425.135-18.28 2.649-25.997 6.973l-23.604-23.604c2.817-5.875 4.398-12.45 4.398-19.389 0-23.375-17.916-42.637-40.736-44.792l-9.427-37.708c12.141-8.068 20.163-21.862 20.163-37.5 0-24.813-20.187-45-45-45s-45 20.187-45 45c0 23.375 17.916 42.637 40.736 44.792l9.427 37.707c-5.018 3.334-9.329 7.646-12.663 12.663l-37.707-9.427c-2.156-22.819-21.418-40.735-44.793-40.735-24.813 0-45 20.187-45 45s20.187 45 45 45c15.638 0 29.432-8.022 37.5-20.163l37.707 9.427c2.156 22.82 21.418 40.736 44.793 40.736 6.939 0 13.514-1.581 19.389-4.398l23.604 23.604c-4.324 7.716-6.838 16.572-6.973 25.997l-110.789 29.685c-8.122-11.789-21.709-19.536-37.076-19.536-24.813 0-45 20.187-45 45s20.187 45 45 45c23.63 0 43.051-18.312 44.85-41.489l107.804-28.886-107.197 107.198c-5.875-2.817-12.451-4.398-19.389-4.398-24.813 0-45 20.187-45 45s20.187 45 45 45 45-20.187 45-45c0-6.939-1.581-13.514-4.398-19.389l107.198-107.198-28.886 107.804c-23.176 1.799-41.489 21.22-41.489 44.85 0 24.813 20.187 45 45 45s45-20.187 45-45c0-15.367-7.747-28.953-19.536-37.076l29.686-110.789c9.425-.135 18.28-2.649 25.996-6.973l23.604 23.603c-2.817 5.876-4.398 12.452-4.398 19.391 0 23.375 17.916 42.637 40.737 44.792l9.427 37.707c-12.142 8.068-20.164 21.863-20.164 37.501 0 24.813 20.187 45 45 45s45-20.187 45-45c0-23.375-17.916-42.637-40.737-44.792l-9.427-37.707c5.018-3.334 9.33-7.646 12.664-12.664l37.707 9.427c2.156 22.82 21.418 40.736 44.793 40.736 24.813 0 45-20.187 45-45s-20.187-45-45-45z"/></g></svg>