<svg id="Capa_1" enable-background="new 0 0 512 512" height="512" viewBox="0 0 512 512" width="512" xmlns="http://www.w3.org/2000/svg"><path d="m462 206c-2.459 0-4.875.186-7.241.531l-56.984-98.699c8.204-8.91 13.225-20.794 13.225-33.832 0-27.57-22.43-50-50-50-22.396 0-41.4 14.801-47.744 35.135h-113.512c-6.344-20.334-25.348-35.135-47.744-35.135-27.57 0-50 22.43-50 50 0 12.711 4.775 24.322 12.616 33.153l-57.375 99.377c-2.366-.344-4.782-.53-7.241-.53-27.57 0-50 22.43-50 50s22.43 50 50 50c2.459 0 4.875-.186 7.241-.531l57.375 99.377c-7.841 8.832-12.616 20.443-12.616 33.154 0 27.57 22.43 50 50 50 22.396 0 41.4-14.801 47.744-35.135h113.512c6.344 20.334 25.348 35.135 47.744 35.135 27.57 0 50-22.43 50-50 0-13.038-5.021-24.922-13.224-33.832l56.984-98.699c2.365.345 4.781.531 7.241.531 27.57 0 50-22.43 50-50s-22.431-50-50.001-50zm0 70c-11.028 0-20-8.972-20-20s8.972-20 20-20 20 8.972 20 20-8.972 20-20 20zm-81 162c0 11.028-8.972 20-20 20s-20-8.972-20-20 8.972-20 20-20 20 8.972 20 20zm-209 0c0 11.028-8.972 20-20 20s-20-8.972-20-20 8.972-20 20-20 20 8.972 20 20zm-142-182c0-11.028 8.972-20 20-20s20 8.972 20 20-8.972 20-20 20-20-8.972-20-20zm102-182c0-11.028 8.972-20 20-20s20 8.972 20 20-8.972 20-20 20-20-8.972-20-20zm209 0c0-11.028 8.972-20 20-20s20 8.972 20 20-8.972 20-20 20-20-8.972-20-20zm-40 182c0 24.813-20.187 45-45 45s-45-20.187-45-45 20.187-45 45-45 45 20.187 45 45zm23.258-148.133-44.264 77.092c-7.539-2.553-15.603-3.959-23.994-3.959-8.08 0-15.859 1.3-23.157 3.675l-44.101-76.808c4.901-5.313 8.667-11.685 10.911-18.733h113.695c2.243 7.048 6.009 13.42 10.91 18.733zm-135.516 296.266 44.101-76.808c7.298 2.375 15.077 3.675 23.157 3.675 8.391 0 16.455-1.406 23.994-3.959l44.264 77.092c-4.901 5.313-8.667 11.685-10.911 18.733h-113.694c-2.244-7.048-6.01-13.42-10.911-18.733zm225.56-163.133h-84.811c-3.284-16.114-11.758-30.357-23.585-40.923l44.355-77.25c3.462.76 7.052 1.173 10.739 1.173 3.703 0 7.309-.417 10.785-1.185l55.918 96.852c-6.13 5.791-10.807 13.101-13.401 21.333zm-273.97-118.389c3.746.899 7.65 1.389 11.668 1.389 3.687 0 7.277-.413 10.739-1.174l44.023 76.672c-12.173 10.622-20.907 25.088-24.252 41.502h-84.812c-2.594-8.232-7.271-15.542-13.401-21.333zm-42.634 148.389h84.811c3.345 16.414 12.079 30.88 24.252 41.502l-44.023 76.672c-3.461-.761-7.051-1.174-10.738-1.174-4.018 0-7.922.49-11.668 1.389l-56.036-97.056c6.131-5.791 10.808-13.101 13.402-21.333zm274.087 118.185c-3.476-.768-7.082-1.185-10.785-1.185-3.687 0-7.277.413-10.739 1.174l-44.355-77.25c11.827-10.566 20.301-24.809 23.585-40.923h84.811c2.594 8.232 7.271 15.542 13.401 21.333z"/></svg>